<?xml version="1.0" encoding="utf-8"?>
<!-- Generator: Adobe Illustrator 16.0.0, SVG Export Plug-In . SVG Version: 6.00 Build 0)  -->
<!DOCTYPE svg PUBLIC "-//W3C//DTD SVG 1.1//EN" "http://www.w3.org/Graphics/SVG/1.1/DTD/svg11.dtd">
<svg version="1.1" id="Layer_1" xmlns="http://www.w3.org/2000/svg" xmlns:xlink="http://www.w3.org/1999/xlink" x="0px" y="0px"
	 width="451.158px" height="88.429px" viewBox="0 0 451.158 88.429" enable-background="new 0 0 451.158 88.429"
	 xml:space="preserve">
<g>
	<path fill="#231F20" d="M81.574,17.559c-4.958-3.493-10.479-4.619-22.76-4.619H32.449c-9.689,0-14.76,0.676-20.056,2.704
		C4.958,18.46,0,25.445,0,32.882c0,8.45,7.099,15.211,15.999,15.211c6.535,0,10.816-3.606,10.816-8.902
		c0-4.281-2.929-7.099-7.098-7.099c-2.141,0-3.943,0.789-5.521,2.479c-0.901,1.014-1.239,1.239-1.803,1.239
		c-1.352,0-2.479-1.916-2.479-4.282c0-6.084,6.423-10.816,14.873-10.816c2.929,0,5.408,0.789,6.422,2.142
		c1.014,1.014,1.239,2.479,1.239,5.858v44.392c0,5.07-2.141,7.098-8.112,7.662l-1.352,0.113v6.084h33.688V80.88l-1.353-0.113
		c-5.972-0.564-8.112-2.592-8.112-7.662V55.078c2.028-0.113,7.437-0.113,10.704-0.225c11.154-0.113,16.225-0.789,21.069-2.93
		c6.873-3.154,10.816-9.464,10.816-17.577C89.799,27.361,86.757,21.164,81.574,17.559z M67.265,46.515
		c-3.268,1.578-6.647,2.141-13.858,2.141h-6.197v-21.07c0-5.295,2.366-6.76,10.816-6.76c5.296,0,9.352,1.127,11.718,3.154
		c2.704,2.366,4.395,6.423,4.395,10.704C74.138,39.98,71.546,44.487,67.265,46.515z"/>
	<path fill="#231F20" d="M450.257,66.683c-1.689-5.07-5.633-8.113-10.253-10.479c-1.239-0.676-2.366-1.24-3.605-1.803
		c-3.493-1.352-6.76-2.703-7.887-3.83c-1.577-1.465-1.803-3.043-1.803-3.832c0-2.478,1.915-4.844,5.521-4.844
		c1.578,0,5.184,0.45,8.226,4.733c1.014,1.576,2.141,4.168,2.253,4.506c0.338,1.014,0.563,1.014,1.127,1.127h3.042
		c0.676-0.113,0.676-0.225,0.563-0.902c-0.338-4.844-0.563-9.576-0.789-14.421c0-0.225,0-0.676-0.563-0.676
		c-0.901,0-1.239,0.451-2.479,1.127c-0.563,0.226-1.127,0.563-2.253,0.563c-1.353,0-2.704-0.451-3.943-0.676
		c-1.465-0.339-2.817-0.451-4.169-0.451c-0.901,0-3.268,0-5.747,0.676c-7.661,2.254-11.041,8.676-11.041,14.536
		c0,2.365,0.563,4.055,1.014,5.182c2.028,4.957,6.197,8,14.535,11.381c1.915,0.787,4.506,1.689,6.309,3.943
		c1.015,1.352,1.127,2.592,1.127,3.268c0,2.816-2.704,6.535-7.323,6.535c-6.084,0-8.338-3.494-9.126-5.07
		c-1.353-2.367-2.592-6.873-2.817-7.549c-0.112-0.34-0.226-0.564-0.901-0.678h-2.816c-0.676,0.113-1.127,0-1.239,1.127
		c0.112,5.408,0,10.705-0.113,16c0.226,0.676,0.451,0.676,0.677,0.676c0.676,0,1.239-0.338,1.352-0.338
		c0.451-0.225,1.014-0.451,1.577-0.676c1.353-0.451,1.353-0.451,2.028-0.451c1.577,0,2.254,0.564,5.183,1.465
		c3.155,0.902,5.408,1.014,6.647,1.014c8.226,0,13.634-4.168,16.338-8.449c2.141-3.381,2.253-7.211,2.253-7.549
		C451.158,70.402,450.82,68.373,450.257,66.683z"/>
	<path fill="#231F20" d="M404.928,67.583V10.122h-5.07c-6.31,2.141-9.014,2.592-19.604,4.057v6.084h3.605
		c2.253,0,5.295,0.901,6.31,1.803c0.676,0.676,1.014,1.915,1.014,4.281v8.901c-4.507-2.93-9.689-4.395-15.773-4.395
		c-15.662,0-26.027,11.605-26.027,28.843c0,5.75,1.105,10.822,3.139,15.048c-0.07,0.103-0.145,0.225-0.227,0.39
		c-1.015,2.928-2.028,3.83-3.381,3.83c-0.225,0-1.126-0.113-1.803-0.676c-1.465-1.127-1.577-3.268-1.689-6.311l0.45-20.279
		c-0.112-5.859-1.352-8.338-3.38-10.367c-4.619-4.619-13.746-5.408-18.253-5.408c-5.634,0-10.253,1.127-12.168,1.803
		c-5.859,2.141-9.577,6.31-9.577,11.042c0,1.127,0.226,2.252,1.127,3.492c1.803,2.479,4.731,2.365,5.183,2.365
		c0.788,0,2.704,0.113,4.732-2.141c1.239-1.465,1.352-2.59,2.141-5.408c0.45-1.238,0.788-1.914,1.126-2.478
		c0.563-0.676,1.24-1.239,1.465-1.352c0.901-0.677,2.479-1.578,4.846-1.578c3.605,0,5.746,1.69,6.76,3.605
		c1.239,2.141,1.239,4.846,1.014,9.465c-3.605,1.014-7.098,1.916-10.703,3.154c-4.395,1.354-7.662,2.592-11.943,5.297
		c-1.352,0.9-2.479,1.576-3.605,2.703c-4.507,4.057-4.732,8.451-4.732,9.916c0,3.492,1.127,5.52,2.366,7.098
		c1.127,1.465,2.028,2.141,2.704,2.479c3.605,2.592,6.873,2.592,8.45,2.592c8,0,12.845-3.154,18.253-6.873
		c0.676,1.014,1.577,2.254,2.479,3.043c3.605,3.492,8.45,3.605,9.577,3.605c6.31,0,10.141-3.605,11.718-7.1
		c0.128-0.24,0.242-0.498,0.349-0.762c4.51,5.445,11.189,8.537,19.387,8.537c5.746,0,8.337-0.789,15.999-4.846v3.381h5.408
		c5.408-1.578,8.901-2.141,17.126-2.816v-5.973l-1.577-0.225C406.393,77.386,404.928,75.359,404.928,67.583z M330.998,74.908
		c-0.451,0.451-1.127,1.127-2.479,2.029c-3.155,2.252-5.634,2.365-6.311,2.365c-3.492,0-6.872-2.141-6.872-5.971
		c0-4.732,5.746-8.451,6.872-9.014c0.902-0.564,1.803-1.016,2.817-1.354c1.915-0.9,3.943-1.576,5.972-2.252V74.908z M391.182,76.148
		c-3.38,3.154-8,5.07-12.394,5.07c-4.169,0-7.774-1.578-10.253-4.621c-2.592-3.154-3.831-8.674-3.831-17.35
		c0-6.311,0.901-11.719,2.253-14.422c2.366-4.395,6.873-6.985,12.169-6.985c4.732,0,8.901,1.803,12.056,5.295V76.148z"/>
	<path fill="#231F20" d="M167.642,33.107c1.689,0,2.479,0.563,3.38,2.591c1.352,3.155,3.605,4.845,6.422,4.845
		c3.831,0,6.986-3.154,6.986-7.098c0-5.521-5.746-9.803-13.183-9.803c-2.887,0-5.9,0.643-9.354,2.077V2.253h-2.817
		c-4.168,0-9.689-0.338-13.633-0.901C134.514,0,134.514,0,130.908,0c-12.732,0-21.069,5.746-21.069,14.647
		c0,7.661,6.647,12.957,16.111,12.957c1.127,0,1.803-0.338,1.803-0.901c0-0.338-0.338-0.676-1.127-1.015
		c-3.267-1.577-5.408-5.408-5.408-9.352c0-6.084,4.508-9.352,12.958-9.352c9.352,0,15.098,3.605,15.098,9.465
		c0,4.507-2.93,6.534-9.689,6.534v6.423h8.562v4.376c-2.98,2.103-6.248,4.555-9.912,7.437c-4.169-6.423-10.027-9.803-16.9-9.803
		c-8.112,0-14.31,5.521-14.31,12.619c0,6.536,4.732,10.928,11.83,10.928c3.042,0,5.747-0.562,9.353-1.803
		c0.562,3.268,0.676,5.07,0.676,7.775c0,4.732-0.789,8.9-2.254,12.506c-2.253,5.521-6.196,8.113-12.394,8.113
		c-4.395,0-8.225-2.029-10.366-5.408c-2.591-4.057-4.056-10.141-4.056-16.676c0-8.789,2.93-18.027,7.887-25.013
		c1.015-1.239,1.239-1.803,1.239-2.366c0-0.676-0.562-1.126-1.352-1.126c-3.268,0-8.225,2.253-11.83,5.408
		c-6.648,5.746-10.592,14.308-10.592,23.21c0,16.674,12.169,28.73,28.957,28.73c17.238,0,29.294-12.395,29.294-29.971
		c0-4.395-0.563-7.211-2.141-11.605c0.676-0.338,1.353-0.789,1.915-1.238c1.937-1.28,3.567-2.356,4.955-3.271v33.353
		c0,7.775,6.197,12.846,15.661,12.846c8.226,0,14.31-2.592,20.394-8.564l-4.507-5.182c-3.38,3.268-7.211,5.07-10.703,5.07
		c-2.479,0-4.508-0.902-5.634-2.592c-1.239-1.803-1.465-2.816-1.465-8.113V34.299C163.959,33.522,165.978,33.107,167.642,33.107z
		 M120.433,48.318c-3.381,0-5.747-2.141-5.747-5.183c0-2.704,1.803-4.507,4.508-4.507c3.605,0,5.971,2.592,7.436,8.338
		C124.826,47.867,122.573,48.318,120.433,48.318z"/>
	<path fill="#231F20" d="M290.577,23.967c-7.437-7.887-15.774-10.703-31.098-10.703h-28.506c-9.689,0-14.76,0.676-20.056,2.704
		c-7.436,2.816-12.394,9.689-12.394,17.238c0,8.45,7.099,15.211,15.999,15.211c6.535,0,10.816-3.605,10.816-8.901
		c0-4.169-2.929-7.099-7.098-7.099c-2.141,0-3.943,0.789-5.521,2.479c-0.901,1.014-1.239,1.239-1.803,1.239
		c-1.352,0-2.479-1.916-2.479-4.282c0-6.084,6.423-10.816,14.873-10.816c2.929,0,5.408,0.789,6.422,2.142
		c1.014,1.014,1.239,2.366,1.239,5.746V73.43c0,5.07-2.141,7.098-8.112,7.661l-1.352,0.113v6.084h36.956
		c16.449,0,25.576-3.155,32.899-11.38c5.972-6.647,8.901-15.211,8.901-25.464C300.267,39.628,296.999,30.728,290.577,23.967z
		 M279.084,68.472c-4.169,7.211-11.718,11.042-21.633,11.042c-4.619,0-8.45-0.563-9.802-1.465c-1.578-0.901-1.916-2.027-1.916-6.196
		V27.686c0-3.381,0.338-4.62,1.803-5.634c1.578-1.015,4.732-1.577,9.465-1.577c9.352,0,15.999,2.704,20.168,8.112
		c4.169,5.295,6.535,12.957,6.535,20.844C283.704,56.304,282.014,63.29,279.084,68.472z"/>
</g>
<g>
</g>
<g>
</g>
<g>
</g>
<g>
</g>
<g>
</g>
<g>
</g>
</svg>
